<svg width="32" height="32" viewBox="0 0 32 32" fill="none" xmlns="http://www.w3.org/2000/svg">
<path d="M20 10H27V12H20V10ZM20 16H30V18H20V16ZM20 22H27V24H20V22ZM10 20.184V7H8.00001V20.184C7.33279 20.4199 6.77045 20.8841 6.41237 21.4945C6.0543 22.1049 5.92354 22.8222 6.04321 23.5197C6.16288 24.2172 6.52528 24.85 7.06635 25.3061C7.60741 25.7622 8.29232 26.0124 9.00001 26.0124C9.70769 26.0124 10.3926 25.7622 10.9337 25.3061C11.4747 24.85 11.8371 24.2172 11.9568 23.5197C12.0765 22.8222 11.9457 22.1049 11.5876 21.4945C11.2296 20.8841 10.6672 20.4199 10 20.184Z" fill="black"/>
<path d="M30 4H12.974C12.3466 3.1607 11.4705 2.54057 10.4704 2.22778C9.47023 1.91499 8.39695 1.92546 7.40311 2.2577C6.40927 2.58994 5.54546 3.22704 4.93451 4.07841C4.32356 4.92979 3.99656 5.9521 4 7V18.11C3.03533 19.0946 2.38281 20.342 2.12426 21.6959C1.8657 23.0498 2.01262 24.45 2.5466 25.7207C3.08058 26.9915 3.97784 28.0763 5.12587 28.8392C6.27391 29.602 7.62162 30.009 9 30.009C10.3784 30.009 11.7261 29.602 12.8741 28.8392C14.0222 28.0763 14.9194 26.9915 15.4534 25.7207C15.9874 24.45 16.1343 23.0498 15.8758 21.6959C15.6172 20.342 14.9647 19.0946 14 18.11V7C14 6.66412 13.9662 6.32909 13.899 6H30V4ZM9 28C7.98774 28.0015 6.99895 27.6952 6.16472 27.1218C5.3305 26.5485 4.69024 25.7351 4.32885 24.7896C3.96747 23.844 3.90201 22.8109 4.14117 21.8273C4.38033 20.8437 4.91281 19.9561 5.668 19.282L6 18.983V7C6 6.20435 6.31607 5.44129 6.87868 4.87868C7.44129 4.31607 8.20435 4 9 4C9.79565 4 10.5587 4.31607 11.1213 4.87868C11.6839 5.44129 12 6.20435 12 7V18.983L12.332 19.282C13.0872 19.9561 13.6197 20.8437 13.8588 21.8273C14.098 22.8109 14.0325 23.844 13.6712 24.7896C13.3098 25.7351 12.6695 26.5485 11.8353 27.1218C11.0011 27.6952 10.0123 28.0015 9 28Z" fill="black"/>
</svg>
