<svg width="32" height="32" viewBox="0 0 32 32" fill="none" xmlns="http://www.w3.org/2000/svg">
<path d="M17.3334 6.4C12 6.4 12 25.6 17.3334 25.6C22.6667 25.6 29.3334 22 29.3334 16C29.3334 10 22.6667 6.4 17.3334 6.4ZM17.4667 22.9333C16.9334 22.4 16 20 16 16C16 12 16.9334 9.6 17.4667 9.06667C21.3334 9.2 26.6667 11.6 26.6667 16C26.6667 20.4 21.3334 22.8 17.4667 22.9333ZM2.66669 6.66667H12.6667C12.4 7.2 12 7.73333 11.8667 8.53333C11.7334 8.8 11.7334 9.06667 11.6 9.33333H2.66669V6.66667ZM10.6667 14.6667H2.66669V12H10.9334C10.8 12.8 10.8 13.7333 10.6667 14.6667ZM11.6 22.6667C11.8667 23.7333 12.2667 24.5333 12.8 25.3333H2.80002V22.6667H11.6ZM10.9334 20H2.66669V17.3333H10.6667C10.8 18.2667 10.8 19.2 10.9334 20Z" fill="black"/>
</svg>
