<svg width="32" height="32" viewBox="0 0 32 32" fill="none" xmlns="http://www.w3.org/2000/svg">
<path d="M16 2.66667C16.7072 2.66667 17.3855 2.94762 17.8856 3.44772C18.3857 3.94781 18.6666 4.62609 18.6666 5.33333C18.6666 6.81333 17.48 8 16 8C15.2927 8 14.6144 7.71905 14.1144 7.21895C13.6143 6.71886 13.3333 6.04058 13.3333 5.33333C13.3333 4.62609 13.6143 3.94781 14.1144 3.44772C14.6144 2.94762 15.2927 2.66667 16 2.66667ZM16.52 19.72C18.414 19.7126 20.3066 19.824 22.1866 20.0533C22.2666 16.4267 21.9466 13.2267 21.3333 12C21.16 11.64 20.92 11.3333 20.6666 11.0667L9.90664 20.2933C11.72 20 14 19.72 16.52 19.72ZM9.94664 22.6667C10.12 24.9867 10.4666 27.3333 11.0266 29.3333H13.7866C13.4 28.16 13.12 26.7867 12.9066 25.3333C12.9066 25.3333 16 24.7467 19.0933 25.3333C18.88 26.7867 18.6 28.16 18.2133 29.3333H20.9733C21.56 27.2667 21.9066 24.8133 22.08 22.3867C20.2349 22.165 18.3783 22.0536 16.52 22.0533C13.9466 22.0533 11.7066 22.3333 9.94664 22.6667ZM16 9.33333C16 9.33333 12 9.33333 10.6666 12C10.2133 12.9067 9.91997 14.8667 9.82664 17.28L18.56 9.78667C17.24 9.33333 16 9.33333 16 9.33333ZM24.76 7.56L23.24 5.78667L18.56 9.8C19.2933 10.0533 20.0666 10.4533 20.6666 11.0667L24.76 7.56ZM27.56 21.1067C27.44 21.0667 25.52 20.44 22.1866 20.0533C22.1733 20.8133 22.1333 21.6 22.08 22.3867C25.08 22.76 26.8 23.3333 26.8266 23.3333L27.56 21.1067ZM9.82664 17.28L4.5733 21.7867L5.75997 23.76C5.78664 23.7467 7.3333 23.1467 9.94664 22.6667C9.79997 20.7867 9.75997 18.9333 9.82664 17.28Z" fill="#699BF7"/>
</svg>
