<svg width="32" height="32" viewBox="0 0 32 32" fill="none" xmlns="http://www.w3.org/2000/svg">
<path fill-rule="evenodd" clip-rule="evenodd" d="M16 2.66666C18.3347 2.66666 20.2534 3.456 21.5574 4.212C23.3227 5.23466 24 7.15866 24 8.876V11.156C24.5294 11.4933 25.0227 11.8227 25.46 12.1267L26.2134 12.6587L26.3467 12.7547C26.736 13.0356 27.1196 13.3253 27.4974 13.624C28.0654 14.0773 28.164 14.9307 27.708 15.5C27.4871 15.7759 27.1657 15.9528 26.8144 15.9918C26.4631 16.0308 26.1108 15.9287 25.8347 15.708C25.2381 15.2382 24.6262 14.7882 24 14.3587V23.448C24 25.0089 23.38 26.5058 22.2763 27.6096C21.1725 28.7133 19.6756 29.3333 18.1147 29.3333H13.8854C12.3245 29.3333 10.8275 28.7133 9.7238 27.6096C8.62009 26.5058 8.00003 25.0089 8.00003 23.448V14.3587C7.37736 14.7907 6.76003 15.2347 6.1667 15.708C5.89052 15.929 5.53785 16.0313 5.18628 15.9923C4.83472 15.9532 4.51304 15.7762 4.29203 15.5C4.07102 15.2238 3.96877 14.8712 4.00777 14.5196C4.04678 14.168 4.22385 13.8463 4.50003 13.6253C4.8787 13.3276 5.26314 13.0373 5.65336 12.7547L6.22136 12.348C6.73336 11.988 7.3387 11.5773 8.00003 11.1573V8.876C8.00003 7.15733 8.67736 5.23466 10.4427 4.212C11.7467 3.456 13.6667 2.66666 16 2.66666ZM21.3334 15.2187C20.5214 16.0307 20 17.0387 20 18.2093V22.6667C20 23.3739 19.7191 24.0522 19.219 24.5523C18.7189 25.0524 18.0406 25.3333 17.3334 25.3333H14.6667C13.9595 25.3333 13.2812 25.0524 12.7811 24.5523C12.281 24.0522 12 23.3739 12 22.6667V18.2093C12 17.0387 11.4787 16.0307 10.6667 15.2187V23.448C10.6667 23.8707 10.7499 24.2892 10.9117 24.6797C11.0735 25.0702 11.3105 25.4251 11.6094 25.7239C11.9083 26.0228 12.2631 26.2599 12.6536 26.4217C13.0441 26.5834 13.4627 26.6667 13.8854 26.6667H18.1147C18.5374 26.6667 18.9559 26.5834 19.3464 26.4217C19.7369 26.2599 20.0918 26.0228 20.3906 25.7239C20.6895 25.4251 20.9266 25.0702 21.0884 24.6797C21.2501 24.2892 21.3334 23.8707 21.3334 23.448V15.2187ZM16 5.33333C14.2707 5.33333 12.8134 5.92 11.78 6.52C11.0974 6.91333 10.6667 7.764 10.6667 8.87466V9.62133C11.148 9.37466 11.6387 9.14266 12.128 8.936C13.3787 8.41066 14.7387 8 16 8C17.2614 8 18.6214 8.41066 19.872 8.93733C20.3614 9.144 20.852 9.376 21.3334 9.62133V8.87466C21.3334 7.76533 20.9027 6.91466 20.22 6.51866C19.1867 5.92 17.7294 5.33333 16 5.33333Z" fill="black"/>
</svg>
