<svg width="32" height="32" viewBox="0 0 32 32" fill="none" xmlns="http://www.w3.org/2000/svg">
<path fill-rule="evenodd" clip-rule="evenodd" d="M5.71429 0.0114288C5.25963 0.0114288 4.82359 0.192041 4.5021 0.513532C4.18061 0.835022 4 1.27106 4 1.72571C4 2.18037 4.18061 2.61641 4.5021 2.9379C4.82359 3.25939 5.25963 3.44 5.71429 3.44H6.87543C7.02239 5.76014 8.04766 7.93716 9.7427 9.52823C11.4377 11.1193 13.6752 12.0049 16 12.0049C18.3248 12.0049 20.5623 11.1193 22.2573 9.52823C23.9523 7.93716 24.9776 5.76014 25.1246 3.44H26.2857C26.7404 3.44 27.1764 3.25939 27.4979 2.9379C27.8194 2.61641 28 2.18037 28 1.72571C28 1.27106 27.8194 0.835022 27.4979 0.513532C27.1764 0.192041 26.7404 0.0114288 26.2857 0.0114288H5.71429ZM9.52229 17.6114C9.80629 17.2562 9.93755 16.8027 9.88719 16.3507C9.83682 15.8986 9.60895 15.4852 9.25371 15.2011C8.89848 14.9171 8.44496 14.7859 7.99295 14.8362C7.54093 14.8866 7.12744 15.1145 6.84343 15.4697C5.46514 17.1931 4.98514 18.8617 5.19771 20.5097C5.38286 21.9589 6.10286 23.216 6.63771 24.144L6.69486 24.2469C7.30057 25.3097 7.67771 26.0114 7.76914 26.7246C7.84229 27.2914 7.75086 28.0503 6.84343 29.184C6.55942 29.5392 6.42816 29.9928 6.47853 30.4448C6.52889 30.8968 6.75676 31.3103 7.112 31.5943C7.46724 31.8783 7.92075 32.0096 8.37277 31.9592C8.82478 31.9088 9.23828 31.681 9.52229 31.3257C10.9006 29.6 11.3806 27.9314 11.168 26.2857C10.9829 24.8366 10.2629 23.5794 9.728 22.6514L9.67086 22.5463C9.06514 21.4857 8.688 20.7817 8.59657 20.0709C8.52343 19.504 8.61486 18.7451 9.52229 17.6114ZM17.3394 17.6114C17.4801 17.4355 17.5847 17.2337 17.6473 17.0173C17.7099 16.801 17.7293 16.5745 17.7043 16.3507C17.6794 16.1268 17.6106 15.9101 17.5019 15.7129C17.3932 15.5157 17.2468 15.3418 17.0709 15.2011C16.895 15.0605 16.6931 14.9559 16.4768 14.8933C16.2604 14.8307 16.0339 14.8113 15.8101 14.8362C15.5863 14.8612 15.3696 14.93 15.1723 15.0387C14.9751 15.1473 14.8012 15.2938 14.6606 15.4697C13.2823 17.1931 12.8023 18.8617 13.0149 20.5097C13.2 21.9589 13.92 23.216 14.4549 24.144L14.512 24.2469C15.1177 25.3097 15.4949 26.0114 15.5863 26.7246C15.6594 27.2914 15.568 28.0503 14.6606 29.184C14.5199 29.3599 14.4153 29.5618 14.3527 29.7781C14.2901 29.9944 14.2707 30.221 14.2957 30.4448C14.3206 30.6686 14.3894 30.8853 14.4981 31.0825C14.6068 31.2798 14.7532 31.4537 14.9291 31.5943C15.105 31.7349 15.3069 31.8395 15.5232 31.9021C15.7396 31.9647 15.9661 31.9841 16.1899 31.9592C16.4137 31.9342 16.6304 31.8655 16.8277 31.7568C17.0249 31.6481 17.1988 31.5016 17.3394 31.3257C18.7177 29.6 19.1977 27.9314 18.9851 26.2857C18.8 24.8366 18.08 23.5794 17.5451 22.6514L17.488 22.5463C16.8823 21.4857 16.5051 20.7817 16.4137 20.0709C16.3406 19.504 16.432 18.7451 17.3394 17.6114ZM24.8891 15.2023C25.244 15.4863 25.4715 15.8997 25.5217 16.3515C25.5718 16.8033 25.4405 17.2565 25.1566 17.6114C24.2491 18.7429 24.1577 19.504 24.2309 20.0709C24.3223 20.7817 24.6994 21.4857 25.3051 22.5463L25.3646 22.6491C25.8971 23.5794 26.6171 24.8366 26.8046 26.2834C27.0149 27.9314 26.5349 29.6 25.1566 31.3257C24.8726 31.681 24.4591 31.9088 24.0071 31.9592C23.555 32.0096 23.1015 31.8783 22.7463 31.5943C22.391 31.3103 22.1632 30.8968 22.1128 30.4448C22.0624 29.9928 22.1937 29.5392 22.4777 29.184C23.3851 28.0503 23.4766 27.2914 23.4034 26.7246C23.312 26.0114 22.9349 25.3074 22.3291 24.2469L22.2697 24.144C21.7371 23.216 21.0171 21.9589 20.8297 20.5097C20.6194 18.864 21.0994 17.1954 22.4777 15.4697C22.6184 15.2937 22.7924 15.1471 22.9898 15.0384C23.1871 14.9296 23.404 14.8609 23.628 14.836C23.852 14.8112 24.0786 14.8308 24.295 14.8936C24.5114 14.9565 24.7133 15.0613 24.8891 15.2023Z" fill="black"/>
</svg>
