<svg width="32" height="32" viewBox="0 0 32 32" fill="none" xmlns="http://www.w3.org/2000/svg">
<path fill-rule="evenodd" clip-rule="evenodd" d="M5.29143 12C6.10736 9.81858 7.57005 7.93837 9.48377 6.61096C11.3975 5.28355 13.671 4.57226 16 4.57226C18.329 4.57226 20.6025 5.28355 22.5162 6.61096C24.43 7.93837 25.8926 9.81858 26.7086 12H5.29143ZM4.58514 15.4286C4.44373 18.2576 5.35776 21.0385 7.15004 23.232C8.94233 25.4254 11.4852 26.8753 14.2857 27.3006V20.8983L9.49943 15.4286H4.58514ZM17.7143 27.3006C20.5148 26.8753 23.0577 25.4254 24.85 23.232C26.6422 21.0385 27.5563 18.2576 27.4149 15.4286H22.5006L17.7143 20.8983V27.3006ZM16 0C11.7565 0 7.68687 1.68571 4.68629 4.68629C1.68571 7.68687 0 11.7565 0 16C0 20.2435 1.68571 24.3131 4.68629 27.3137C7.68687 30.3143 11.7565 32 16 32C20.2435 32 24.3131 30.3143 27.3137 27.3137C30.3143 24.3131 32 20.2435 32 16C32 11.7565 30.3143 7.68687 27.3137 4.68629C24.3131 1.68571 20.2435 0 16 0Z" fill="black"/>
</svg>
